<?xml version="1.0" encoding="UTF-8"?>
<svg version="1.1" xmlns="http://www.w3.org/2000/svg" width="3840" height="2160">
<path d="M0 0 C1267.2 0 2534.4 0 3840 0 C3840 712.8 3840 1425.6 3840 2160 C2572.8 2160 1305.6 2160 0 2160 C0 1447.2 0 734.4 0 0 Z " fill="#000000" transform="translate(0,0)"/>
<path d="M0 0 C19.81223915 -0.0704558 39.62445245 -0.12316564 59.43679142 -0.15543652 C68.63848654 -0.1708267 77.84010328 -0.19176368 87.04174805 -0.22631836 C95.07311816 -0.25646365 103.10443144 -0.27563182 111.13585657 -0.28226548 C115.3782563 -0.28613576 119.62049362 -0.29506189 123.86284065 -0.31719017 C142.12889325 -0.40874346 159.93565496 -0.10725694 178 3 C179.51945084 3.24665362 181.03902289 3.4925621 182.55873108 3.73762512 C209.13690339 8.17658361 234.38707306 18.4703512 255 36 C255.73605469 36.59039063 256.47210937 37.18078125 257.23046875 37.7890625 C275.19908856 52.73640995 288.23741021 76.37409863 292.32495117 99.28515625 C292.76807816 101.72371693 293.24709551 104.15608213 293.76513672 106.57983398 C295.67559796 115.75347427 296.47430418 124.49018319 296.39111328 133.85449219 C296.37500004 135.99999488 296.39109647 138.14361523 296.41015625 140.2890625 C296.42486413 150.16375033 295.13043604 159.37097188 293 169 C292.82694336 169.82371094 292.65388672 170.64742187 292.47558594 171.49609375 C285.57623472 203.45426237 268.17324573 231.56091983 240.94921875 250.11328125 C221.85660808 262.32749443 201.51045727 269.80472722 179.4375 274.6875 C178.52871094 274.88996338 177.61992188 275.09242676 176.68359375 275.30102539 C163.55972946 278.09613818 150.84163067 279.29983309 137.43579102 279.22705078 C135.94591276 279.22648477 134.45603394 279.22680692 132.96615601 279.22793579 C128.9733194 279.2285029 124.98060623 279.21685419 120.98779798 279.20278788 C116.7958219 279.19017195 112.60384211 279.18910155 108.41184998 279.18673706 C100.49685393 279.18055388 92.58191401 279.16418649 84.66694254 279.14403808 C75.64621801 279.12157985 66.62549061 279.11066085 57.60474503 279.10064721 C39.06979836 279.07981697 20.53490371 279.04470341 2 279 C1.61781233 277.34385343 1.28604898 275.67542976 1 274 C1.33 273.67 1.66 273.34 2 273 C11.9 273 21.8 273 32 273 C32 189.51 32 106.02 32 20 C30.35 19.34 28.7 18.68 27 18 C23.27010649 16.00542202 19.64315951 13.83572429 16 11.6875 C15.01515625 11.11837891 14.0303125 10.54925781 13.015625 9.96289062 C12.06171875 9.40150391 11.1078125 8.84011719 10.125 8.26171875 C9.26132813 7.75600342 8.39765625 7.25028809 7.5078125 6.72924805 C4.65777579 4.76402121 2.41829767 2.46851615 0 0 Z " fill="#F1F1F1" transform="translate(1038,922)"/>
<path d="M0 0 C0.81210938 0.67675781 1.62421875 1.35351562 2.4609375 2.05078125 C30.92929917 26.61260117 46.59460498 62.48791883 49.64453125 99.54296875 C52.46983748 139.59840277 43.36248582 179.02716812 17.8203125 210.703125 C15.61344949 213.20908666 13.33138562 215.60949842 11 218 C10.00101994 219.06093232 9.00234008 220.12214737 8.00390625 221.18359375 C0.94299621 228.57374124 -6.35645124 234.5252809 -15 240 C-16.54227748 236.91544503 -15.17818414 234.89426411 -14.125 231.6875 C-7.65481005 211.84709236 -10.43237045 190.00846512 -15 170 C-15.31708393 168.49911481 -15.63227133 166.99782735 -15.9453125 165.49609375 C-26.97315011 114.08355426 -55.61109979 63.90010816 -90.890625 25.3359375 C-92.77855259 23.24523251 -94.57630732 21.10449641 -96.375 18.9375 C-100.70714654 13.97649347 -105.80512283 10.01774761 -111 6 C-111.87785156 5.30648437 -112.75570313 4.61296875 -113.66015625 3.8984375 C-126.87456571 -6.18265838 -142.0072939 -13.93395248 -159 -12 C-164.70346838 -10.37698729 -168.93089406 -7.11241534 -172 -2 C-175.47029867 4.89202883 -176.59836299 10.83602965 -176.375 18.5 C-176.35131348 19.93339722 -176.35131348 19.93339722 -176.32714844 21.39575195 C-176.11580957 30.34565512 -175.38359014 39.15688242 -174 48 C-173.89236328 48.7105957 -173.78472656 49.42119141 -173.67382812 50.15332031 C-170.02482869 73.02656821 -161.06892805 95.25568561 -151 116 C-150.61376465 116.81194824 -150.2275293 117.62389648 -149.82958984 118.46044922 C-133.54194784 152.65583023 -111.48772764 183.10938895 -86 211 C-85.0805861 212.01289099 -84.16132221 213.02591816 -83.2421875 214.0390625 C-75.85607949 222.16264673 -68.33760318 229.84962834 -60 237 C-58.94493606 237.91883877 -57.89028026 238.83814629 -56.8359375 239.7578125 C-22.45946379 269.6436439 19.69920323 295.50610061 65 304 C65 304.33 65 304.66 65 305 C20.41614686 305.53497332 -27.59168637 304.47016712 -70.53125 291.078125 C-73.23284629 290.23843967 -75.92538274 289.4674203 -78.65625 288.734375 C-120.8042227 277.33553815 -159.98373219 258.1599864 -191 227 C-191.53705566 226.46552246 -192.07411133 225.93104492 -192.62744141 225.38037109 C-209.98420726 207.93776034 -222.08306217 186.58609684 -230 163.375 C-230.36174316 162.32852295 -230.72348633 161.2820459 -231.09619141 160.20385742 C-236.01501771 144.99798408 -237.49802193 129.63237144 -237.33618164 113.72802734 C-237.31236934 111.2363277 -237.31568649 108.745693 -237.32226562 106.25390625 C-237.30032534 92.76636824 -236.22819664 79.68960199 -232.375 66.6875 C-232.11485107 65.80215576 -231.85470215 64.91681152 -231.58666992 64.00463867 C-221.10231139 29.61926228 -198.39947429 -1.00440099 -166.51269531 -18.2800293 C-156.21061953 -23.67229754 -146.05944409 -28.04617707 -134.6875 -30.625 C-133.76090576 -30.83664795 -132.83431152 -31.0482959 -131.87963867 -31.26635742 C-129.25559365 -31.85638345 -126.62839823 -32.42974768 -124 -33 C-122.89914062 -33.25136719 -121.79828125 -33.50273438 -120.6640625 -33.76171875 C-78.52150771 -41.90158207 -32.32909558 -27.35144118 0 0 Z " fill="#F2F2F2" transform="translate(2015,949)"/>
<path d="M0 0 C30.43016386 -0.02278993 60.86032684 -0.04049795 91.29049727 -0.05106533 C94.87929312 -0.05231611 98.46808894 -0.05361042 102.05688477 -0.05493164 C102.77137939 -0.05519395 103.48587401 -0.05545626 104.22201998 -0.05572652 C115.80612918 -0.06008331 127.39023345 -0.0679709 138.97433972 -0.0771528 C150.85190458 -0.0864891 162.72946684 -0.09205556 174.60703522 -0.09408849 C181.28217621 -0.09534006 187.95730734 -0.09848476 194.63244438 -0.10573006 C200.9072829 -0.11248609 207.18210551 -0.11461782 213.45694733 -0.11310768 C215.76732278 -0.1133842 218.07769874 -0.11539178 220.38807106 -0.11920547 C223.52752774 -0.12413621 226.66692331 -0.12300059 229.80638123 -0.12025452 C231.19691693 -0.12462378 231.19691693 -0.12462378 232.61554426 -0.12908131 C238.88587879 -0.11412121 238.88587879 -0.11412121 240 1 C240.09526806 3.95246354 240.12552452 6.88148421 240.11352539 9.83422852 C240.11367142 10.76096375 240.11381744 11.68769897 240.1139679 12.64251709 C240.11326838 15.72133687 240.10547421 18.80009697 240.09765625 21.87890625 C240.09579221 24.00740018 240.09436824 26.13589453 240.09336853 28.26438904 C240.08954228 33.8786232 240.07971108 39.49283168 240.06866455 45.10705566 C240.05845273 50.83113253 240.0538714 56.55521353 240.04882812 62.27929688 C240.03808891 73.51954256 240.0210112 84.75976915 240 96 C236.27377886 92.38834956 233.75786133 89.1508678 231.3125 84.5625 C227.10870398 76.9284145 222.21618766 69.96924886 217 63 C216.58411621 62.43313477 216.16823242 61.86626953 215.73974609 61.28222656 C198.31631696 37.59609141 176.963542 20.2429357 148.8125 11.125 C147.92941162 10.82625977 147.04632324 10.52751953 146.13647461 10.21972656 C136.42694195 7.25611887 128.86473863 7.57182835 118 7 C118 47.59 118 88.18 118 130 C130.69253224 127.13314752 130.69253224 127.13314752 142.3125 122.3125 C142.96927734 121.9721875 143.62605469 121.631875 144.30273438 121.28125 C150.5144608 117.94161214 155.82073201 113.77889694 161 109 C161.680625 108.41089844 162.36125 107.82179688 163.0625 107.21484375 C169.97728601 100.87164287 174.86586135 92.78252298 180 85 C180.99 83.515 180.99 83.515 182 82 C182.66 82 183.32 82 184 82 C184 115.99 184 149.98 184 185 C183.34 185 182.68 185 182 185 C180.70008565 183.06656418 179.48598685 181.07517981 178.3125 179.0625 C167.41747742 160.8754169 152.53326292 145.67331045 132 139 C127.38 138.01 122.76 137.02 118 136 C118 180.88 118 225.76 118 272 C130.27537333 271.31803481 139.7147151 270.71834151 151 267 C151.66273926 266.78182617 152.32547852 266.56365234 153.00830078 266.33886719 C179.61074217 257.41458436 200.44498697 239.28877896 216.875 216.9375 C217.48214844 216.11330566 218.08929687 215.28911133 218.71484375 214.43994141 C223.21776555 208.24842393 227.26034892 201.89052738 231.09375 195.26953125 C233.54056653 191.07283978 236.06000827 186.8744891 239 183 C239.33 183 239.66 183 240 183 C240 214.68 240 246.36 240 279 C161.46 279 82.92 279 2 279 C2 277.02 2 275.04 2 273 C11.9 272.67 21.8 272.34 32 272 C32.33 189.17 32.66 106.34 33 21 C31.35 20.34 29.7 19.68 28 19 C26.36665322 18.07043402 24.75504486 17.10190731 23.1640625 16.1015625 C22.26429688 15.53953125 21.36453125 14.9775 20.4375 14.3984375 C19.509375 13.81320312 18.58125 13.22796875 17.625 12.625 C11.80614566 8.97395414 5.99643484 5.35337816 0 2 C0 1.34 0 0.68 0 0 Z " fill="#F2F2F2" transform="translate(2390,922)"/>
<path d="M0 0 C30.43016386 -0.02278993 60.86032684 -0.04049795 91.29049727 -0.05106533 C94.87929312 -0.05231611 98.46808894 -0.05361042 102.05688477 -0.05493164 C102.77137939 -0.05519395 103.48587401 -0.05545626 104.22201998 -0.05572652 C115.80612918 -0.06008331 127.39023345 -0.0679709 138.97433972 -0.0771528 C150.85190458 -0.0864891 162.72946684 -0.09205556 174.60703522 -0.09408849 C181.28217621 -0.09534006 187.95730734 -0.09848476 194.63244438 -0.10573006 C200.9072829 -0.11248609 207.18210551 -0.11461782 213.45694733 -0.11310768 C215.76732278 -0.1133842 218.07769874 -0.11539178 220.38807106 -0.11920547 C223.52752774 -0.12413621 226.66692331 -0.12300059 229.80638123 -0.12025452 C231.19691693 -0.12462378 231.19691693 -0.12462378 232.61554426 -0.12908131 C238.88587879 -0.11412121 238.88587879 -0.11412121 240 1 C240.09526806 3.95246354 240.12552452 6.88148421 240.11352539 9.83422852 C240.11367142 10.76096375 240.11381744 11.68769897 240.1139679 12.64251709 C240.11326838 15.72133687 240.10547421 18.80009697 240.09765625 21.87890625 C240.09579221 24.00740018 240.09436824 26.13589453 240.09336853 28.26438904 C240.08954228 33.8786232 240.07971108 39.49283168 240.06866455 45.10705566 C240.05845273 50.83113253 240.0538714 56.55521353 240.04882812 62.27929688 C240.03808891 73.51954256 240.0210112 84.75976915 240 96 C237.29052143 93.35135683 235.18755415 90.9478075 233.30078125 87.65625 C232.81834961 86.82786621 232.33591797 85.99948242 231.83886719 85.14599609 C231.33516602 84.27281738 230.83146484 83.39963867 230.3125 82.5 C225.64528423 74.56801128 220.75903398 67.19065824 215 60 C214.34644531 59.15566406 213.69289063 58.31132813 213.01953125 57.44140625 C194.43564773 33.66442155 172.86391017 18.30331662 144 10 C143.19949219 9.76152344 142.39898438 9.52304687 141.57421875 9.27734375 C133.80355903 7.2403747 126.13672606 7.47863094 118 7 C118.33 47.26 118.66 87.52 119 129 C137.74994682 126.91667258 151.9222948 118.0777052 165 105 C165.81597656 104.18402344 166.63195313 103.36804687 167.47265625 102.52734375 C172.73414775 96.97705684 176.59635227 91.09607866 180.37109375 84.4921875 C180.90863281 83.66976562 181.44617187 82.84734375 182 82 C182.66 82 183.32 82 184 82 C184 115.66 184 149.32 184 184 C183.34 184 182.68 184 182 184 C180.625 182.05078125 180.625 182.05078125 179 179.3125 C176.14194342 174.69287395 173.10962727 170.31007804 169.8125 166 C169.39677734 165.44868408 168.98105469 164.89736816 168.55273438 164.3293457 C166.27302629 161.37985938 163.98699292 159.19732813 161 157 C161 156.34 161 155.68 161 155 C160.40703125 154.72414063 159.8140625 154.44828125 159.203125 154.1640625 C157.1149041 153.06071174 155.55417312 151.88409808 153.75 150.375 C149.7273428 147.299296 145.44671036 145.01495215 140.9375 142.75 C139.92864746 142.23832275 139.92864746 142.23832275 138.89941406 141.71630859 C131.97748761 138.31288706 125.74581642 136.96822705 118 136 C118.33 180.88 118.66 225.76 119 272 C126.05974831 272.11048475 126.05974831 272.11048475 132.76171875 271.30078125 C133.56319336 271.14641602 134.36466797 270.99205078 135.19042969 270.83300781 C136.01446289 270.66124023 136.83849609 270.48947266 137.6875 270.3125 C138.99895996 270.04131348 138.99895996 270.04131348 140.33691406 269.76464844 C178.0645217 261.63166802 204.91265755 236.40676291 225.4296875 204.79736328 C228.81099357 199.49496912 232.09826057 194.13496795 235.35986328 188.75830078 C235.80958496 188.02466309 236.25930664 187.29102539 236.72265625 186.53515625 C237.33959351 185.52207397 237.33959351 185.52207397 237.96899414 184.48852539 C238.30922607 183.99731201 238.64945801 183.50609863 239 183 C239.33 183 239.66 183 240 183 C240 214.68 240 246.36 240 279 C161.46 279 82.92 279 2 279 C2 277.02 2 275.04 2 273 C11.9 272.67 21.8 272.34 32 272 C32.49790086 240.24586218 32.89150009 208.49321915 33.12343725 176.73609944 C33.15095104 172.98250702 33.1794263 169.22892247 33.20849609 165.4753418 C33.21426692 164.72810752 33.22003775 163.98087325 33.22598346 163.21099552 C33.32157907 151.12937777 33.49495376 139.05007541 33.69736151 126.96982894 C33.90349065 114.56350476 34.02537203 102.1583883 34.06994689 89.75042218 C34.10006205 82.09941441 34.19492386 74.4549495 34.37416227 66.80595841 C34.50481392 60.92908634 34.51792385 55.05552441 34.48836899 49.17716217 C34.4944007 46.77466602 34.5379069 44.37191284 34.62252045 41.97089958 C35.06591675 31.18166982 35.06591675 31.18166982 32 21 C26.6716097 15.46178836 19.78914769 12.36799226 12.84745145 9.31100786 C8.38272084 7.25538127 3.95842935 4.92835914 0 2 C0 1.34 0 0.68 0 0 Z " fill="#F3F3F3" transform="translate(1355,922)"/>
<path d="M0 0 C2.3885556 0.66519845 4.76281632 1.20236194 7.19140625 1.6965332 C12.09137049 2.75244714 16.68685695 4.44522275 21.36328125 6.2277832 C22.18699219 6.53586914 23.01070312 6.84395508 23.859375 7.16137695 C27.79586401 8.6383527 31.71812959 10.14438822 35.61328125 11.7277832 C34.99332805 17.39044848 34.01447575 22.81884905 32.67578125 28.3527832 C32.50626953 29.07723633 32.33675781 29.80168945 32.16210938 30.5480957 C31.17468678 34.69301793 29.98365566 38.69016665 28.61328125 42.7277832 C27.78867465 45.53123042 27.01293372 48.34767766 26.23828125 51.1652832 C26.01841553 51.96023193 25.7985498 52.75518066 25.57202148 53.57421875 C24.24434352 58.3887958 22.94968899 63.21116015 21.67578125 68.0402832 C19.13373814 77.64355716 16.36593047 87.18315131 13.61328125 96.7277832 C10.33941097 94.54520302 9.59900555 93.24537779 7.81640625 89.82543945 C7.29369141 88.83560059 6.77097656 87.84576172 6.23242188 86.82592773 C5.69810547 85.80354004 5.16378906 84.78115234 4.61328125 83.7277832 C3.5901714 81.82906508 2.56415161 79.93191193 1.53515625 78.03637695 C1.01961182 77.08190674 0.50406738 76.12743652 -0.02709961 75.14404297 C-5.61217176 64.80831336 -11.24260278 54.50084109 -16.97802734 44.24780273 C-18.6236522 41.30393103 -20.26479132 38.35757358 -21.90625 35.41137695 C-23.14956389 33.18341432 -24.39305265 30.95554925 -25.63671875 28.7277832 C-26.50478149 27.16942749 -26.50478149 27.16942749 -27.39038086 25.57958984 C-28.50773974 23.58131363 -29.6332556 21.58757278 -30.76757812 19.59887695 C-31.84281754 17.69224011 -32.88632864 15.76734297 -33.89648438 13.82543945 C-36.74137072 8.47235314 -36.74137072 8.47235314 -41.6328125 5.13793945 C-57.47022955 3.40752448 -69.51155386 3.57617099 -82.6171875 13.3996582 C-84.47234842 15.06099634 -85.91123938 16.72475814 -87.38671875 18.7277832 C-88.14082031 19.69844727 -88.14082031 19.69844727 -88.91015625 20.6887207 C-94.10840903 28.87381486 -93.57240429 39.40741952 -92.38671875 48.7277832 C-91.28258273 52.86829328 -89.73832275 56.16004626 -87.38671875 59.7277832 C-86.92910156 60.43805664 -86.47148438 61.14833008 -86 61.88012695 C-84.55954792 63.9362243 -83.02856565 65.82939773 -81.38671875 67.7277832 C-80.61328125 68.64237305 -80.61328125 68.64237305 -79.82421875 69.57543945 C-70.04450084 80.20651673 -56.78057363 87.70028591 -44.36328125 94.8371582 C-36.7538096 99.22270899 -29.27483936 103.83060889 -21.77783203 108.40478516 C-20.57456262 109.13878334 -19.37127507 109.87275177 -18.16796875 110.60668945 C-17.28828934 111.14348076 -17.28828934 111.14348076 -16.39083862 111.69111633 C-12.95777432 113.78248965 -9.50933979 115.84450189 -6.04296875 117.88012695 C15.22821724 130.4363094 36.38302863 148.15831367 43.61328125 172.7277832 C47.36795804 188.49095215 48.42846057 204.05129714 43.61328125 219.7277832 C43.40928711 220.39841797 43.20529297 221.06905273 42.99511719 221.76000977 C34.96398491 247.65368954 18.21299879 264.81739549 -5.26000977 277.76074219 C-10.0648513 280.28477829 -14.83220104 281.92374263 -20.07421875 283.2902832 C-20.85659912 283.50007813 -21.63897949 283.70987305 -22.44506836 283.92602539 C-59.0861601 293.65500914 -100.75057646 291.67804436 -137.38671875 281.7277832 C-138.29808594 281.48205566 -139.20945312 281.23632812 -140.1484375 280.9831543 C-157.14116683 276.35055917 -157.14116683 276.35055917 -160.38671875 274.7277832 C-160.71495016 268.37606188 -159.47951601 262.65464851 -158.07421875 256.4777832 C-157.86087891 255.50454102 -157.64753906 254.53129883 -157.42773438 253.52856445 C-156.12960869 247.69281138 -154.64075178 241.93505498 -153.04077148 236.17553711 C-152.23309664 233.15286148 -151.63079554 230.11849359 -151.07421875 227.0402832 C-149.55028397 219.14646232 -147.57505958 211.39012778 -145.58984375 203.60131836 C-143.81506979 196.58583311 -142.25583672 189.57123416 -140.9296875 182.45825195 C-140.38671875 179.7277832 -140.38671875 179.7277832 -139.38671875 176.7277832 C-135.35455418 178.21320305 -134.23784729 180.28247086 -132.35546875 184.0559082 C-131.5202771 185.70308838 -131.5202771 185.70308838 -130.66821289 187.38354492 C-130.3781839 187.96875916 -130.08815491 188.55397339 -129.78933716 189.15692139 C-128.24985466 192.26253598 -126.6722922 195.3488289 -125.1015625 198.4387207 C-124.7856163 199.06316071 -124.4696701 199.68760071 -124.14414978 200.33096313 C-121.36079674 205.82040252 -118.43101723 211.21936208 -115.44921875 216.6027832 C-110.00899519 226.46140158 -104.83643021 236.44933268 -99.72485352 246.48120117 C-96.28924277 253.18795443 -92.69982572 259.74131235 -88.80566406 266.19384766 C-87.57326546 268.39465032 -86.73561058 270.40850667 -85.94921875 272.7902832 C-84.0911532 276.28344645 -82.46637026 276.87631799 -78.80981445 278.13232422 C-74.30146142 279.24022075 -69.82022355 279.21359699 -65.19921875 279.1652832 C-64.18126221 279.15698486 -63.16330566 279.14868652 -62.11450195 279.14013672 C-48.67249326 278.83914027 -38.22057701 275.24527411 -28.35546875 265.77856445 C-23.30471504 260.33188301 -19.32452496 254.23023285 -18.38671875 246.7277832 C-17.72671875 246.7277832 -17.06671875 246.7277832 -16.38671875 246.7277832 C-16.93621797 229.16275638 -19.53645661 216.2966972 -31.95703125 202.9387207 C-41.28321579 194.45219265 -53.39848643 188.79197047 -64.39941406 182.80883789 C-66.06215622 181.90433884 -67.72101296 180.99270206 -69.37890625 180.0793457 C-73.31914761 177.91161413 -77.27441998 175.78087785 -81.26953125 173.71606445 C-108.822434 159.43501603 -135.53619705 141.80751716 -146.35546875 111.06762695 C-153.87105985 86.72736034 -152.25435268 61.30417506 -140.38671875 38.7277832 C-138.2812251 35.17743612 -135.9773962 31.93797048 -133.38671875 28.7277832 C-132.79375 27.97239258 -132.20078125 27.21700195 -131.58984375 26.4387207 C-116.17601897 7.90391487 -90.81543355 -2.49692212 -67.27001953 -5.04516602 C-45.10446581 -6.79063299 -21.42507778 -6.17723393 0 0 Z " fill="#F2F2F2" transform="translate(802.38671875,919.272216796875)"/>
<path d="M0 0 C1.55460937 0.64195312 1.55460937 0.64195312 3.140625 1.296875 C6.09811972 2.52114025 9.05061845 3.75634411 12 5 C12.44841344 11.54317567 10.79037315 17.07170405 8.9375 23.3125 C8.28915989 25.56085088 7.64206205 27.80956028 6.99609375 30.05859375 C6.49698486 31.78505127 6.49698486 31.78505127 5.98779297 33.54638672 C4.43536442 38.97413122 2.96271346 44.42250039 1.5 49.875 C1.21688965 50.92840576 0.9337793 51.98181152 0.64208984 53.06713867 C-2.64872606 65.35799233 -5.82983496 77.67756702 -9 90 C-9.66 90 -10.32 90 -11 90 C-11.53403442 89.04468384 -11.53403442 89.04468384 -12.07885742 88.07006836 C-19.00364019 75.68563758 -25.948627 63.31383528 -32.95068359 50.97290039 C-36.03313305 45.52481769 -39.0780682 40.05767035 -42.08984375 34.5703125 C-42.44048889 33.93198486 -42.79113403 33.29365723 -43.15240479 32.63598633 C-44.86267218 29.52126679 -46.56907309 26.40453114 -48.26904297 23.28417969 C-50.15529466 19.84207225 -52.07306239 16.41947039 -54 13 C-54.32997986 12.39466431 -54.65995972 11.78932861 -54.99993896 11.16564941 C-55.99309591 9.35019609 -57.01443558 7.55340728 -58.04296875 5.7578125 C-58.63489014 4.69965332 -59.22681152 3.64149414 -59.83666992 2.55126953 C-63.08337576 -1.27765226 -66.6142907 -1.7004437 -71.44018555 -2.30639648 C-84.78406941 -2.69943074 -95.13506946 -2.01445794 -105.9375 6.6875 C-112.3698053 12.82795842 -116.04819023 20.83320767 -116.34375 29.69897461 C-116.55171525 44.5961107 -111.33710753 54.24776679 -101.1171875 64.9765625 C-86.80810702 78.61227448 -67.87094397 88.01624518 -51 98 C-45.98141999 100.970135 -40.97499071 103.9572971 -36 107 C-35.15840332 107.51385254 -34.31680664 108.02770508 -33.44970703 108.55712891 C-7.78045692 124.31453485 14.0941471 141.55266568 22 172 C26.1179346 197.73709128 20.9581864 221.47925234 6.125 242.875 C-5.69426645 258.16917651 -20.42416808 267.54615321 -38 275 C-38.77601563 275.350625 -39.55203125 275.70125 -40.3515625 276.0625 C-44.23697119 277.43786591 -48.21384775 278.19150628 -52.25 279 C-53.8803126 279.33282299 -55.51052142 279.66615479 -57.140625 280 C-57.95748779 280.16282471 -58.77435059 280.32564941 -59.6159668 280.4934082 C-61.11281002 280.81147781 -62.60346951 281.16217579 -64.08129883 281.55932617 C-71.370351 283.47425391 -78.69522539 283.35183547 -86.1875 283.3125 C-87.26671722 283.30976578 -87.26671722 283.30976578 -88.36773682 283.30697632 C-121.00154908 283.16917295 -153.03511504 278.36355572 -184 268 C-182.84448118 256.69980064 -180.81259028 245.69916291 -177.8125 234.75 C-174.58539822 222.96670728 -172.06155598 211.02165953 -169.45262146 199.09008789 C-168.80668792 196.14643981 -168.15178041 193.20480893 -167.49725342 190.26306152 C-166.97564069 187.88913777 -166.47251223 185.51166208 -165.96923828 183.13378906 C-165.62719832 181.57083854 -165.28460634 180.00800869 -164.94140625 178.4453125 C-164.79098373 177.71190643 -164.64056122 176.97850037 -164.48558044 176.22286987 C-164.02954102 174.18798828 -164.02954102 174.18798828 -163 171 C-162.01 170.67 -161.02 170.34 -160 170 C-157.76795799 174.14428989 -155.53915833 178.29031553 -153.3125 182.4375 C-152.97597412 183.06414551 -152.63944824 183.69079102 -152.29272461 184.33642578 C-146.92698766 194.33464595 -141.64746373 204.37296701 -136.4777832 214.47436523 C-133.36371683 220.52089127 -130.03892489 226.40053875 -126.58447266 232.25878906 C-124.6224312 235.65321148 -122.89150597 239.0938996 -121.1875 242.625 C-119.80227712 245.42201168 -118.40297824 248.21185716 -117 251 C-116.59845703 251.79970215 -116.19691406 252.5994043 -115.78320312 253.42333984 C-114.52499926 255.89951994 -113.23553306 258.35700258 -111.9375 260.8125 C-111.55037842 261.58352051 -111.16325684 262.35454102 -110.7644043 263.14892578 C-108.58189841 267.20545616 -106.72505203 270.05246644 -102.12182617 271.59350586 C-97.49771276 272.47938192 -92.8793414 272.42729297 -88.1875 272.375 C-86.64352539 272.39240234 -86.64352539 272.39240234 -85.06835938 272.41015625 C-76.07329965 272.3760194 -68.18470857 270.85634485 -60.5625 265.875 C-57.96159719 264.19672885 -55.95198396 262.98399465 -53 262 C-53 261.34 -53 260.68 -53 260 C-52.34 260 -51.68 260 -51 260 C-50.731875 259.44054688 -50.46375 258.88109375 -50.1875 258.3046875 C-48.46452499 254.96075573 -46.43477582 251.81846743 -44.4375 248.6328125 C-39.33316879 239.28411892 -39.53301554 227.39840992 -41.875 217.18359375 C-44.39085695 210.17395283 -47.91216818 204.42009839 -53 199 C-53.61101563 198.34773438 -54.22203125 197.69546875 -54.8515625 197.0234375 C-64.89439361 187.29080967 -78.37412347 181.30698508 -90.58972168 174.82312012 C-100.4239253 169.60040152 -110.208423 164.30693864 -119.82818604 158.69659424 C-121.4988288 157.72454649 -123.17677804 156.76508961 -124.85498047 155.80615234 C-131.548112 151.85918705 -137.1205172 147.49097559 -142.71972656 142.16137695 C-144.49343422 140.48015277 -146.24973445 138.97662395 -148.1875 137.5 C-156.47736432 130.13123172 -161.92020947 120.71835204 -167 111 C-167.42410156 110.19175781 -167.84820313 109.38351562 -168.28515625 108.55078125 C-175.49629115 92.83982954 -176.89100717 69.52823112 -172 53 C-171.75507813 52.09765625 -171.51015625 51.1953125 -171.2578125 50.265625 C-166.77928407 35.2843529 -159.23529925 23.67920499 -148 13 C-147.12472656 12.16597656 -146.24945312 11.33195313 -145.34765625 10.47265625 C-108.90508475 -21.5858465 -42.42815429 -18.08952315 0 0 Z " fill="#F2F2F2" transform="translate(2851,926)"/>
<path d="M0 0 C91.74 0 183.48 0 278 0 C278 35.31 278 70.62 278 107 C277.34 107 276.68 107 276 107 C275.30777344 105.36417969 275.30777344 105.36417969 274.6015625 103.6953125 C269.73868621 92.38069935 264.24186176 81.61378863 258 71 C257.58991699 70.30100586 257.17983398 69.60201172 256.75732422 68.88183594 C250.17939496 57.77325672 242.98695566 46.7522532 233.671875 37.7265625 C231 35 231 35 231 33 C230.34 33 229.68 33 229 33 C229 32.34 229 31.68 229 31 C228.12988281 30.61714844 228.12988281 30.61714844 227.2421875 30.2265625 C224.77653057 28.87775365 223.13330997 27.33642336 221.125 25.375 C209.82658001 15.20272971 195.89028675 9.48171446 181 7 C181.33 94.45 181.66 181.9 182 272 C193.22 272.33 204.44 272.66 216 273 C216 274.98 216 276.96 216 279 C164.85 279 113.7 279 61 279 C61 277.02 61 275.04 61 273 C72.22 272.67 83.44 272.34 95 272 C95.33 184.55 95.66 97.1 96 7 C62.17950903 14.80472869 41.02464422 36.4903564 23 65.25 C15.23926265 78.13752748 8.12247172 91.25484826 2 105 C1.34 105 0.68 105 0 105 C0 70.35 0 35.7 0 0 Z " fill="#F2F2F2" transform="translate(2894,922)"/>
<path d="M0 0 C49.5 0 99 0 150 0 C145.89432178 4.10567822 143.2857574 6.2034593 138.375 8.875 C137.13810153 9.55899386 135.90243991 10.24522873 134.66796875 10.93359375 C134.0548584 11.27503418 133.44174805 11.61647461 132.81005859 11.96826172 C125.49228065 15.91453879 125.49228065 15.91453879 119 21 C118.9008665 23.13870647 118.87367624 25.28075027 118.87301636 27.42175293 C118.87145637 28.10073308 118.86989638 28.77971324 118.86828911 29.47926855 C118.86427634 31.77200791 118.86747005 34.06468193 118.87060547 36.35742188 C118.86925135 37.99499043 118.86747135 39.63255868 118.86529541 41.27012634 C118.86071662 45.73594972 118.86251396 50.20175012 118.8656745 54.66757393 C118.86820263 59.34816679 118.86585865 64.02875765 118.86428833 68.70935059 C118.86246509 76.58830111 118.86487398 84.4672423 118.86962891 92.34619141 C118.87504166 101.41914043 118.87333139 110.49206687 118.8678025 119.56501532 C118.86323955 127.36821099 118.8626372 135.17139992 118.86524117 142.9745965 C118.86679043 147.62808252 118.86703574 152.28155801 118.86370468 156.93504333 C118.86078069 161.32791234 118.86288336 165.72075287 118.86859894 170.11361885 C118.86990387 171.71258561 118.86957184 173.31155483 118.86733627 174.91052055 C118.80325613 196.15031395 118.80325613 196.15031395 121.75 217.125 C121.9255542 217.95845947 122.1011084 218.79191895 122.28198242 219.65063477 C126.26243635 237.83529932 132.50123665 256.27203246 148.8515625 266.84375 C164.04441511 275.0214332 182.36917642 276.54450678 198.98046875 272.03125 C213.22468503 267.16647238 224.26117434 258.62593844 231 245 C234.36567641 236.94301061 237.21411375 228.55202961 239 220 C239.1851416 219.12214844 239.3702832 218.24429687 239.56103516 217.33984375 C241.58996777 205.80129861 241.26620447 194.15322675 241.20581055 182.47680664 C241.1874907 178.81063904 241.18530189 175.1447244 241.18554688 171.47851562 C241.18063221 169.11718534 241.17480412 166.75585675 241.16796875 164.39453125 C241.16629951 162.77379448 241.16629951 162.77379448 241.16459656 161.12031555 C241.12800973 155.1842686 240.82260662 149.35555988 240.2301178 143.44947815 C239.93224019 140.2787339 239.83940977 137.12506306 239.7890625 133.94140625 C239.76274385 132.60236727 239.73594236 131.26333773 239.70874023 129.92431641 C239.69543671 129.2186554 239.68213318 128.51299438 239.66842651 127.78594971 C239.26237206 106.9958473 238.16213359 86.24303296 237.01611328 65.48266602 C236.21540571 50.63872828 235.79436954 35.86563774 236 21 C235.18829346 20.74927734 234.37658691 20.49855469 233.5402832 20.24023438 C229.35752079 18.77492625 225.38187038 17.00140402 221.35546875 15.15625 C220.54507645 14.78649048 219.73468414 14.41673096 218.8997345 14.0357666 C217.19713324 13.25742286 215.49529696 12.47740379 213.79418945 11.69580078 C211.18164733 10.49731513 208.56461498 9.30903746 205.94726562 8.12109375 C204.29138299 7.36259816 202.63577409 6.60350462 200.98046875 5.84375 C200.19512253 5.48849243 199.40977631 5.13323486 198.60063171 4.76721191 C193.11441184 2.22882368 193.11441184 2.22882368 192 0 C226.65 0 261.3 0 297 0 C293.18114144 3.81885856 290.61079675 6.08092517 286.1484375 8.734375 C285.05015625 9.39050781 283.951875 10.04664063 282.8203125 10.72265625 C281.68335937 11.39167969 280.54640625 12.06070313 279.375 12.75 C278.21838355 13.44079306 277.06213014 14.13219436 275.90625 14.82421875 C267.44319784 19.85226739 267.44319784 19.85226739 264 21 C264.01047363 21.83619873 264.02094727 22.67239746 264.03173828 23.53393555 C264.21360784 40.52032239 264.01906928 57.40901632 262.98880005 74.36679077 C262.16088657 88.04782008 261.62879863 101.72656015 261.18011475 115.42507935 C260.50235854 136.02559701 259.64147667 156.60723529 258.5 177.1875 C258.44014923 178.30374756 258.38029846 179.41999512 258.31863403 180.57006836 C257.71065038 191.81333 257.10438506 202.92091179 255 214 C254.77546143 215.27097534 254.77546143 215.27097534 254.54638672 216.56762695 C252.74302205 226.5320655 250.52445715 235.87170927 246 245 C245.55914063 245.93070313 245.11828125 246.86140625 244.6640625 247.8203125 C241.1046795 254.8800832 236.57023073 260.42021484 231 266 C230.36191406 266.6496875 229.72382813 267.299375 229.06640625 267.96875 C223.73849354 273.01974417 217.64094203 275.9839055 211 279 C209.2365625 279.8353125 209.2365625 279.8353125 207.4375 280.6875 C199.4309363 283.74455159 191.40466588 285.50713334 182.875 286.1875 C181.91706543 286.26645508 180.95913086 286.34541016 179.97216797 286.42675781 C160.40696077 287.84465989 139.31872896 288.77129416 120 285 C119.18708496 284.84402344 118.37416992 284.68804688 117.53662109 284.52734375 C105.33664506 282.09948782 94.08328469 278.66951455 83 273 C81.36611328 272.1646875 81.36611328 272.1646875 79.69921875 271.3125 C60.07635153 260.54111672 46.01708224 242.27272391 39.38183594 221.02001953 C37.07048765 212.94594416 35.49989526 204.80294935 34.39453125 196.4765625 C34.12828919 194.00580228 34.12828919 194.00580228 33 192 C32.74826269 189.00400319 32.56478265 186.03319886 32.43310547 183.03100586 C32.39050535 182.06593329 32.34790524 181.10086073 32.30401421 180.10654354 C31.82425838 167.62347056 31.95292574 155.13565766 32.03088987 142.6465494 C32.06561682 136.97324056 32.08153612 131.30010385 32.08639526 125.62669373 C32.08712795 124.7946124 32.08786064 123.96253107 32.08861554 123.10523516 C32.09126967 119.69154865 32.09331608 116.27786203 32.0950911 112.86417496 C32.10089064 103.23550141 32.12528711 93.60763946 32.20214844 83.97924805 C32.26356575 76.26917267 32.28622469 68.56008409 32.26333606 60.84978241 C32.25272449 56.78631014 32.26148714 52.72501035 32.31766129 48.66186714 C32.36990023 44.85451595 32.37066433 41.05059761 32.33229256 37.24311447 C32.32731144 35.85110955 32.34101671 34.45888778 32.37517738 33.06729317 C32.47310363 28.82285881 32.3774939 25.03430909 31 21 C27.70728418 17.7687782 24.14147048 15.9514905 20 14 C18.25507078 12.94197587 16.52098372 11.86558483 14.8046875 10.76171875 C12.30709778 9.20367974 9.80904472 7.64675407 7.3046875 6.09960938 C6.5003125 5.59623047 5.6959375 5.09285156 4.8671875 4.57421875 C4.14644043 4.12651123 3.42569336 3.67880371 2.68310547 3.2175293 C1 2 1 2 0 0 Z " fill="#F1F1F1" transform="translate(2081,922)"/>
<path d="M0 0 C49.5 0 99 0 150 0 C150 0.66 150 1.32 150 2 C148.015625 3.43286133 148.015625 3.43286133 145.25 5.08203125 C144.24839844 5.68466797 143.24679687 6.28730469 142.21484375 6.90820312 C141.15394531 7.53662109 140.09304688 8.16503906 139 8.8125 C136.93727944 10.04780887 134.87477549 11.28347951 132.8125 12.51953125 C131.89082031 13.06714111 130.96914063 13.61475098 130.01953125 14.17895508 C129.02308594 14.7798999 128.02664063 15.38084473 127 16 C126.33679245 16.30165689 125.6735849 16.60331378 124.99028015 16.91411179 C120.65429932 19.08777193 120.65429932 19.08777193 118.25788879 23.1131798 C117.97088682 25.82600242 117.94518374 28.44044107 118 31.16816711 C117.98908105 32.20149443 117.9781621 33.23482175 117.96691227 34.29946202 C117.939989 37.76742184 117.97016714 41.23253768 118 44.70043945 C117.99239556 47.18391687 117.98127809 49.66738567 117.96690369 52.15083313 C117.94385791 57.50020497 117.94528627 62.84871536 117.96896362 68.19802284 C118.00315395 75.9320287 117.99322578 83.66548399 117.97256029 91.39951482 C117.94022853 103.94750329 117.94353258 116.49521898 117.96923828 129.04321289 C117.9941313 141.23174262 118.00224658 153.42009324 117.98779297 165.60864258 C117.98690776 166.36005185 117.98602255 167.11146111 117.98511052 167.88564036 C117.98056613 171.65527353 117.97569185 175.42490618 117.97065353 179.19453871 C117.92928817 210.4631334 117.94795 241.73141483 118 273 C128.23 273 138.46 273 149 273 C149 274.98 149 276.96 149 279 C100.49 279 51.98 279 2 279 C2 277.02 2 275.04 2 273 C11.9 272.67 21.8 272.34 32 272 C32.33 189.17 32.66 106.34 33 21 C31.35 20.34 29.7 19.68 28 19 C26.36665322 18.07043402 24.75504486 17.10190731 23.1640625 16.1015625 C22.26429688 15.53953125 21.36453125 14.9775 20.4375 14.3984375 C19.509375 13.81320312 18.58125 13.22796875 17.625 12.625 C11.80614566 8.97395414 5.99643484 5.35337816 0 2 C0 1.34 0 0.68 0 0 Z " fill="#F3F3F3" transform="translate(868,922)"/>
<path d="M0 0 C24.31480807 0 40.01410561 1.68971514 57.40234375 18.27734375 C88.39200082 50.75823243 90.00388627 100.44993283 89.13183594 142.75634766 C88.47646599 167.11975997 84.44046669 192.81073747 74 215 C73.45472656 216.19625 72.90945313 217.3925 72.34765625 218.625 C68.70752744 226.39657612 64.34216347 233.29024268 59 240 C58.45859375 240.70640625 57.9171875 241.4128125 57.359375 242.140625 C47.71823408 254.02824536 33.91401335 262.07869842 19 265 C12.73 265 6.46 265 0 265 C0 177.55 0 90.1 0 0 Z " fill="#000000" transform="translate(1156,929)"/>
<path d="M0 0 C35.64 0 71.28 0 108 0 C108 7.59 108 15.18 108 23 C72.36 23 36.72 23 0 23 C0 15.41 0 7.82 0 0 Z " fill="#F4F4F4" transform="translate(1638,1092)"/>
</svg>
