<?xml version="1.0" encoding="UTF-8"?>
<svg version="1.1" xmlns="http://www.w3.org/2000/svg" width="1920" height="1080">
<path d="M0 0 C633.6 0 1267.2 0 1920 0 C1920 356.4 1920 712.8 1920 1080 C1286.4 1080 652.8 1080 0 1080 C0 723.6 0 367.2 0 0 Z " fill="#000000" transform="translate(0,0)"/>
<path d="M0 0 C1.26779297 -0.00773437 2.53558594 -0.01546875 3.84179688 -0.0234375 C35.20323751 0.04086069 63.5078221 12.73516715 85.75 34.625 C90.86713834 39.77239107 95.24819887 45.05055361 99.0625 51.25 C99.64386719 52.16007812 100.22523438 53.07015625 100.82421875 54.0078125 C112.65131089 73.24928562 117.49364189 93.90683552 117.4375 116.3125 C117.43728851 117.08968384 117.43707703 117.86686768 117.43685913 118.66760254 C117.40510139 130.34903452 116.64662622 141.06139544 113.0625 152.25 C112.711875 153.50425781 112.36125 154.75851562 112 156.05078125 C107.6966761 170.44002055 100.3821274 183.51565116 91.0625 195.25 C90.36769531 196.17296875 89.67289063 197.0959375 88.95703125 198.046875 C88.33183594 198.77390625 87.70664063 199.5009375 87.0625 200.25 C86.4025 200.25 85.7425 200.25 85.0625 200.25 C85.0625 200.91 85.0625 201.57 85.0625 202.25 C80.4285491 207.03184295 74.76571433 211.7977217 69.0625 215.25 C68.0725 215.25 67.0825 215.25 66.0625 215.25 C68.0625 205.25 68.0625 205.25 68.58544922 202.93310547 C69.45960767 198.0165234 69.2470958 193.04319976 69.25 188.0625 C69.26224609 186.97646484 69.27449219 185.89042969 69.28710938 184.77148438 C69.29930482 178.00301384 68.64561275 171.82375687 67.0625 165.25 C66.72602446 163.68817364 66.39224105 162.12576204 66.0625 160.5625 C58.40934712 125.37166311 40.184053 90.43779239 18.0625 62.25 C17.42957031 61.42371094 16.79664063 60.59742188 16.14453125 59.74609375 C3.1200092 43.01562521 -14.17794438 22.88228635 -35.9375 18.25 C-43.2276156 17.34955817 -49.38583311 17.29622532 -55.421875 21.8359375 C-60.57384963 26.64267672 -61.65582849 33.33544107 -62.30859375 40.08984375 C-62.74399738 54.79461164 -60.49110155 70.58836256 -54.9375 84.25 C-54.47018394 86.18631395 -54.00290963 88.12263802 -53.53613281 90.05908203 C-52.44454266 94.05415954 -50.87199899 97.85584593 -49.3125 101.6875 C-48.77919067 103.00065186 -48.77919067 103.00065186 -48.23510742 104.34033203 C-20.2152642 172.59966319 33.72226454 231.34616536 102.0625 260.25 C107.31258539 262.2641837 112.61636356 263.84900113 118.0625 265.25 C120.39902274 265.90591681 122.73047052 266.57820978 125.0625 267.25 C125.0625 267.58 125.0625 267.91 125.0625 268.25 C90.03091784 268.43991266 90.03091784 268.43991266 78.9375 267.8125 C77.86749756 267.75364624 77.86749756 267.75364624 76.77587891 267.69360352 C72.20124495 267.38874495 72.20124495 267.38874495 71.0625 266.25 C69.27534356 266.04043117 67.48206231 265.88188384 65.6875 265.75 C62.54229491 265.51763656 60.06622093 265.25124031 57.0625 264.25 C55.00266829 263.97889196 52.93945885 263.73327219 50.875 263.5 C8.87411724 258.12209263 -35.39989258 242.70993626 -66.75390625 213.2578125 C-68.93565322 211.19487267 -68.93565322 211.19487267 -71.4453125 209.30859375 C-90.6503286 193.44488923 -101.98604421 167.83881476 -107.9375 144.25 C-108.12586426 143.55455078 -108.31422852 142.85910156 -108.50830078 142.14257812 C-110.35913014 134.40846008 -110.30969966 126.58188665 -110.30810547 118.67626953 C-110.3124418 116.28213286 -110.34875311 113.88990147 -110.38671875 111.49609375 C-110.60699362 81.3552465 -98.34514624 51.54461259 -77.1875 30 C-56.03874768 9.26472304 -29.3226261 -0.17834339 0 0 Z " fill="#FDFDFD" transform="translate(1047.9375,408.75)"/>
<path d="M0 0 C-1.1765806 7.23288334 -2.79326507 14.23788457 -4.73046875 21.3046875 C-5.74824211 25.03012207 -6.71717434 28.7667243 -7.67578125 32.5078125 C-7.97589111 33.67763672 -8.27600098 34.84746094 -8.58520508 36.05273438 C-9.17959248 38.37381162 -9.77199056 40.69539954 -10.36206055 43.01757812 C-12.34991651 50.75373115 -14.58773547 58.38570267 -17 66 C-20.74415642 64.75194786 -20.92928078 63.80980167 -22.71484375 60.390625 C-23.48731445 58.93354126 -23.48731445 58.93354126 -24.27539062 57.44702148 C-24.82388672 56.39200439 -25.37238281 55.3369873 -25.9375 54.25 C-27.11127071 52.03669301 -28.28709027 49.82447149 -29.46484375 47.61328125 C-30.05765137 46.49775879 -30.65045898 45.38223633 -31.26123047 44.23291016 C-33.75986914 39.58716834 -36.36558199 35.00726478 -39 30.4375 C-42.21620199 24.85538111 -45.41915585 19.26763293 -48.5703125 13.6484375 C-49.16328125 12.59213135 -49.75625 11.5358252 -50.3671875 10.44750977 C-51.51818237 8.39474238 -52.66671625 6.34059271 -53.8125 4.28491211 C-54.33070313 3.36202393 -54.84890625 2.43913574 -55.3828125 1.48828125 C-55.84059082 0.66884033 -56.29836914 -0.15060059 -56.77001953 -0.99487305 C-57.96926541 -3.12460496 -57.96926541 -3.12460496 -60 -5 C-63.66474603 -5.51142625 -67.36618037 -5.41687577 -71.0625 -5.4375 C-72.07505859 -5.47037109 -73.08761719 -5.50324219 -74.13085938 -5.53710938 C-82.11080883 -5.59370476 -88.02627937 -3.83122201 -93.85180664 1.78540039 C-99.07026383 7.44549011 -101.55823328 12.98313544 -101.4375 20.75 C-101.42178955 21.80997192 -101.42178955 21.80997192 -101.40576172 22.89135742 C-101.04764787 33.2659868 -97.31709786 39.792491 -90.15625 47.1796875 C-78.21175574 58.26118441 -62.68748954 65.87422475 -48.69677734 74.0625 C-24.9328606 87.98703131 -1.58881063 102.14945232 7.203125 129.78125 C8.37331243 134.91894791 8.29137728 140.06792994 8.25 145.3125 C8.25773438 146.28123047 8.26546875 147.24996094 8.2734375 148.24804688 C8.24679459 158.23247914 7.03079659 167.24568594 2.3125 176.125 C1.95873291 176.80876709 1.60496582 177.49253418 1.24047852 178.19702148 C-1.6335152 183.61025579 -4.88745221 188.44002224 -9 193 C-9.495 193.58652344 -9.99 194.17304687 -10.5 194.77734375 C-18.83500069 203.96668201 -30.55002888 209.75105394 -42 214 C-42.74314453 214.31702881 -43.48628906 214.63405762 -44.25195312 214.96069336 C-56.26918258 219.50558904 -68.90695728 219.48992437 -81.5625 219.375 C-82.44163055 219.3713443 -83.32076111 219.3676886 -84.22653198 219.36392212 C-97.69133845 219.29827597 -110.75315171 218.5485099 -124 216 C-125.36029252 215.76727218 -126.72095815 215.53671212 -128.08203125 215.30859375 C-137.31220175 213.64507178 -146.11792932 210.95290918 -155 208 C-155.37157936 201.06385189 -153.99160023 195.17384627 -152.1875 188.5 C-150.34680779 181.44642878 -148.57295894 174.43212001 -147.3125 167.25 C-146.35638512 161.84128034 -145.21006017 156.55285109 -143.828125 151.23828125 C-142.76685322 147.08830812 -141.78844573 142.92073407 -140.8125 138.75 C-140.63340088 137.9856665 -140.45430176 137.22133301 -140.26977539 136.43383789 C-139.84580963 134.62272402 -139.4227999 132.81138639 -139 131 C-138.01 131 -137.02 131 -136 131 C-135.54262451 131.86463867 -135.08524902 132.72927734 -134.61401367 133.62011719 C-132.47384692 137.66447454 -130.331158 141.70749218 -128.1875 145.75 C-127.80006622 146.4807373 -127.41263245 147.21147461 -127.01345825 147.96435547 C-121.96643959 157.47829375 -116.85723241 166.95117957 -111.62304688 176.36376953 C-108.84356562 181.38895994 -106.22292734 186.47274924 -103.6875 191.625 C-101.47945503 196.08858666 -99.25573419 200.53422859 -96.8125 204.875 C-96.38582031 205.63554688 -95.95914063 206.39609375 -95.51953125 207.1796875 C-93.08695224 210.09377957 -90.65052991 210.81817671 -86.91674805 211.22949219 C-73.48614196 212.03596817 -62.68925402 211.00105261 -52 202.125 C-45.34737901 195.7375197 -42.92160896 189.4755473 -42.65625 180.39990234 C-42.55021962 171.83297897 -42.67140926 165.10478766 -48 158 C-48.5465625 157.236875 -49.093125 156.47375 -49.65625 155.6875 C-58.23071609 144.9330849 -71.89483629 139.38861901 -83.75830078 133.00024414 C-112.11743763 117.71990797 -112.11743763 117.71990797 -122 109 C-122.68964844 108.45214844 -123.37929688 107.90429688 -124.08984375 107.33984375 C-132.7161079 100.33617823 -138.55655186 91.092483 -143 81 C-143.33257813 80.26523437 -143.66515625 79.53046875 -144.0078125 78.7734375 C-150.26224329 61.29057978 -148.53675858 40.66400818 -141 24 C-132.1758026 7.20436378 -116.86582262 -3.96607065 -99.046875 -10 C-68.22539109 -18.95372717 -28.66112985 -13.56247081 0 0 Z " fill="#FCFCFC" transform="translate(912,422)"/>
</svg>
